<?xml version="1.0" encoding="utf-8"?>
<!-- Generator: Adobe Illustrator 19.0.0, SVG Export Plug-In . SVG Version: 6.00 Build 0)  -->
<svg version="1.1" id="Layer_1" xmlns="http://www.w3.org/2000/svg" xmlns:xlink="http://www.w3.org/1999/xlink" x="0px" y="0px"
	 viewBox="0 0 960 560" style="enable-background:new 0 0 960 560;" xml:space="preserve">
<style type="text/css">
	.st0{fill:#FAFAFA;}
	.st1{fill:#2B2F46;}
</style>
<g>
	<polygon class="st0" points="273.9,193.1 686.6,193.1 686.6,367.5 273.9,367.5 	"/>
	<g>
		<path class="st1" d="M470.7,283.2c0,1.1,0.2,2,0.8,2.7c0.5,0.6,1.2,1,2.1,1s1.5-0.4,2.1-1c0.5-0.7,0.8-1.6,0.8-2.7
			c0-1.1-0.3-2-0.8-2.7c-0.6-0.6-1.2-1-2.1-1s-1.6,0.4-2.1,1C470.9,281.2,470.7,282.1,470.7,283.2z M470.8,276.7
			c0.4-0.4,1-0.7,1.6-0.9s1.2-0.3,1.9-0.3c1.9,0,3.5,0.7,4.8,2.2c1.3,1.5,1.9,3.4,1.9,5.6c0,2.2-0.6,4-1.9,5.5
			c-1.4,1.4-3,2.2-4.8,2.2c-0.7,0-1.4-0.1-2-0.4c-0.6-0.3-1.2-0.6-1.6-1.2c-0.3,0.5-0.6,0.9-0.9,1.1c-0.4,0.2-0.7,0.4-1.2,0.4
			c-0.7,0-1.3-0.3-1.7-0.8c-0.4-0.5-0.5-1.4-0.5-2.4v-15c0-1.1,0.1-1.9,0.5-2.4c0.4-0.6,0.9-0.8,1.7-0.8c0.7,0,1.3,0.2,1.7,0.8
			c0.4,0.5,0.6,1.3,0.6,2.4V276.7z M486.8,281.6h5.8c-0.1-0.7-0.4-1.4-0.9-1.9c-0.6-0.5-1.2-0.7-1.9-0.7c-0.8,0-1.4,0.2-1.9,0.7
			C487.2,280.2,486.9,280.8,486.8,281.6z M486.8,284.5c0.1,0.9,0.4,1.5,1,1.9c0.6,0.4,1.4,0.7,2.3,0.7c0.9,0,1.8-0.3,2.8-0.7
			c1-0.5,1.6-0.7,1.9-0.7c0.5,0,0.9,0.1,1.2,0.4c0.4,0.4,0.5,0.7,0.5,1.2c0,0.9-0.6,1.8-1.9,2.6c-1.4,0.7-2.9,1.1-4.7,1.1
			c-2.2,0-4-0.7-5.4-2.2c-1.4-1.5-2.2-3.4-2.2-5.6c0-2.2,0.6-4.1,2.1-5.5c1.4-1.5,3.2-2.3,5.3-2.3c2,0,3.7,0.7,5.1,2.2
			c1.4,1.4,2.1,3.1,2.1,5.1c0,0.7-0.1,1.2-0.5,1.4c-0.3,0.2-0.9,0.4-1.7,0.4H486.8z M502.3,281.6h5.8c-0.1-0.7-0.4-1.4-0.9-1.9
			c-0.5-0.5-1.2-0.7-1.9-0.7c-0.7,0-1.4,0.2-1.9,0.7C502.8,280.2,502.5,280.8,502.3,281.6z M502.4,284.5c0.1,0.9,0.4,1.5,1,1.9
			c0.6,0.4,1.4,0.7,2.3,0.7c0.9,0,1.7-0.3,2.7-0.7c1-0.5,1.7-0.7,1.9-0.7c0.6,0,0.9,0.1,1.3,0.4c0.3,0.4,0.5,0.7,0.5,1.2
			c0,0.9-0.6,1.8-2,2.6c-1.3,0.7-2.8,1.1-4.6,1.1c-2.2,0-4-0.7-5.4-2.2c-1.5-1.5-2.2-3.4-2.2-5.6c0-2.2,0.7-4.1,2.2-5.5
			c1.4-1.5,3.2-2.3,5.3-2.3c2,0,3.7,0.7,5.1,2.2c1.4,1.4,2,3.1,2,5.1c0,0.7-0.1,1.2-0.4,1.4c-0.3,0.2-0.9,0.4-1.7,0.4H502.4z
			 M515.2,279.9h-0.1c-0.8,0-1.4-0.1-1.8-0.5s-0.6-0.8-0.6-1.4c0-0.6,0.2-1.1,0.6-1.4c0.4-0.4,1.1-0.5,1.9-0.6v-1.9
			c0-1.1,0.2-1.9,0.6-2.4c0.4-0.6,0.9-0.8,1.7-0.8c0.7,0,1.3,0.2,1.7,0.8c0.4,0.5,0.5,1.3,0.5,2.4v1.9h0.4c0.9,0,1.6,0.1,2.1,0.5
			c0.5,0.4,0.7,0.9,0.7,1.4c0,0.6-0.2,1.1-0.7,1.4c-0.4,0.3-1.2,0.4-2.1,0.4h-0.4v7.8c0,1.1-0.1,1.9-0.5,2.4
			c-0.4,0.5-0.9,0.8-1.7,0.8c-0.7,0-1.3-0.3-1.7-0.8c-0.4-0.5-0.6-1.4-0.6-2.4V279.9z M527.8,291.1c-1.5,0-2.8-0.3-3.9-0.9
			c-1-0.6-1.5-1.4-1.5-2.3c0-0.6,0.1-1.1,0.5-1.4c0.3-0.4,0.7-0.6,1.2-0.6c0.5,0,1.2,0.2,2,0.6c0.9,0.4,1.6,0.6,2.1,0.6
			c0.4,0,0.6-0.1,0.9-0.3c0.2-0.1,0.4-0.4,0.4-0.6c0-0.4-0.7-0.9-2.2-1.4l-0.3-0.1c-1.6-0.6-2.7-1.3-3.2-2c-0.6-0.6-0.9-1.4-0.9-2.4
			c0-1.4,0.6-2.5,1.6-3.4c1-0.9,2.4-1.4,4-1.4c1.4,0,2.6,0.3,3.6,0.9c1,0.6,1.5,1.3,1.5,2.2c0,0.5-0.1,0.9-0.5,1.3
			c-0.4,0.4-0.8,0.5-1.3,0.5c-0.4,0-0.9-0.1-1.7-0.5c-0.8-0.4-1.4-0.6-1.8-0.6c-0.3,0-0.6,0.1-0.7,0.2c-0.2,0.1-0.3,0.4-0.3,0.6
			c0,0.4,0.6,0.9,1.7,1.3c0.6,0.2,1,0.4,1.3,0.5c1.3,0.6,2.2,1.2,2.8,1.9c0.6,0.6,0.9,1.4,0.9,2.4c0,1.4-0.6,2.7-1.7,3.6
			C531,290.6,529.5,291.1,527.8,291.1z M534.9,288.4c0-0.7,0.2-1.3,0.7-1.8c0.5-0.5,1.2-0.8,1.8-0.8c0.7,0,1.3,0.3,1.8,0.8
			c0.5,0.5,0.7,1.1,0.7,1.8c0,0.6-0.2,1.3-0.7,1.8c-0.5,0.4-1.1,0.7-1.8,0.7s-1.3-0.3-1.8-0.7C535.1,289.7,534.9,289,534.9,288.4z
			 M542,272c0-0.7,0.2-1.3,0.7-1.8c0.5-0.5,1.2-0.7,1.8-0.7c0.7,0,1.3,0.2,1.8,0.7s0.7,1.1,0.7,1.8c0,0.7-0.2,1.3-0.7,1.8
			c-0.5,0.5-1.1,0.7-1.8,0.7s-1.3-0.2-1.8-0.7C542.2,273.3,542,272.7,542,272z M546.7,287.7c0,1.1-0.1,1.9-0.5,2.4
			c-0.4,0.5-0.9,0.8-1.7,0.8s-1.3-0.3-1.7-0.8c-0.4-0.5-0.5-1.4-0.5-2.4v-8.8c0-1.1,0.1-1.9,0.5-2.4c0.4-0.5,0.9-0.8,1.7-0.8
			s1.3,0.3,1.7,0.8c0.4,0.6,0.5,1.4,0.5,2.4V287.7z M553.5,283.2c0,1.2,0.3,2,0.8,2.7c0.6,0.6,1.2,1,2.1,1s1.6-0.4,2.1-1
			c0.6-0.7,0.9-1.6,0.9-2.7c0-1.1-0.3-1.9-0.9-2.6c-0.5-0.7-1.2-1.1-2.1-1.1s-1.5,0.4-2.1,1C553.8,281.3,553.5,282.1,553.5,283.2z
			 M549,283.3c0-2.3,0.7-4.2,2.1-5.6c1.4-1.5,3.2-2.2,5.3-2.2s4,0.7,5.3,2.2c1.4,1.4,2.1,3.3,2.1,5.6s-0.6,4.2-2.1,5.7
			c-1.4,1.4-3.2,2.2-5.3,2.2s-3.9-0.7-5.3-2.2C549.7,287.5,549,285.6,549,283.3z"/>
		<path class="st1" d="M414.1,267.1c-9.6,0-17.4,7.7-17.4,17.3s7.8,17.3,17.4,17.3c9.5,0,17.3-7.7,17.3-17.3
			S423.6,267.1,414.1,267.1z M416.3,264.9c6.2,0.7,11.5,4.3,14.6,9.4c0.9-0.3,1.8-0.4,2.8-0.4c5.8,0,10.4,4.7,10.4,10.4
			c0,5.8-4.7,10.4-10.4,10.4c-1,0-1.9-0.1-2.8-0.4c-3,5-8.2,8.6-14.3,9.4c4.6,4.1,10.7,6.6,17.4,6.6c4.2,0,8.2-0.9,11.7-2.7
			c6.8-3.4,12-9.7,13.8-17.3c0.5-2,0.7-4,0.7-6.1c0-2.2-0.2-4.2-0.7-6.2c-2.8-11.8-13.8-19.9-25.8-19.9c-4.5,0-8.9,1.2-12.6,3.2
			C419.4,262.4,417.8,263.6,416.3,264.9z M410.8,265.1v-8.7c0-3.4-3.2-6.1-7-6.1s-6.9,2.7-6.9,6.1v18.6
			C399.7,269.7,404.8,266.1,410.8,265.1z"/>
	</g>
</g>
</svg>
