<?xml version="1.0" encoding="utf-8"?>
<!-- Generator: Adobe Illustrator 19.0.0, SVG Export Plug-In . SVG Version: 6.00 Build 0)  -->
<svg version="1.1" id="Layer_1" xmlns="http://www.w3.org/2000/svg" xmlns:xlink="http://www.w3.org/1999/xlink" x="0px" y="0px"
	 viewBox="0 0 960 560" style="enable-background:new 0 0 960 560;" xml:space="preserve">
<style type="text/css">
	.st0{fill:#2B2F46;}
</style>
<path id="XMLID_3_" class="st0" d="M437.3,237.1c-9.6,0-17.4,7.7-17.4,17.3s7.8,17.3,17.4,17.3c9.5,0,17.3-7.7,17.3-17.3
	S446.8,237.1,437.3,237.1z M439.5,234.9c6.2,0.7,11.5,4.3,14.6,9.4c0.9-0.3,1.8-0.4,2.8-0.4c5.8,0,10.4,4.7,10.4,10.4
	c0,5.8-4.7,10.4-10.4,10.4c-1,0-1.9-0.1-2.8-0.4c-3,5-8.2,8.6-14.3,9.4c4.6,4.1,10.7,6.6,17.4,6.6c4.2,0,8.2-0.9,11.7-2.7
	c6.8-3.4,12-9.7,13.8-17.3c0.5-2,0.7-4,0.7-6.1c0-2.2-0.2-4.2-0.7-6.2c-2.8-11.8-13.8-19.9-25.8-19.9c-4.5,0-8.9,1.2-12.6,3.2
	C442.6,232.4,441,233.6,439.5,234.9z M434,235.1v-8.7c0-3.4-3.2-6.1-7-6.1s-6.9,2.7-6.9,6.1V245C422.9,239.7,428,236.1,434,235.1z"
	/>
</svg>
